{
  "accessors": [
    {
      "bufferView": 2,
      "componentType": 5126,
      "count": 5105,
      "max": [
        0.052538156509399414,
        0.16402000188827515,
        0.34118109941482544
      ],
      "min": [
        -0.052538156509399414,
        -0.20299777388572693,
        -1.1968199014663696
      ],
      "type": "VEC3"
    },
    {
      "bufferView": 2,
      "byteOffset": 61260,
      "componentType": 5126,
      "count": 5105,
      "max": [
        0.99993330240249634,
        1,
        0.99792134761810303
      ],
      "min": [
        -0.99993330240249634,
        -1,
        -1
      ],
      "type": "VEC3"
    },
    {
      "bufferView": 1,
      "componentType": 5126,
      "count": 5105,
      "max": [
        0.85514730215072632,
        0.98626822233200073
      ],
      "min": [
        0.4078478217124939,
        0.14994029700756073
      ],
      "type": "VEC2"
    },
    {
      "bufferView": 1,
      "byteOffset": 40840,
      "componentType": 5126,
      "count": 5105,
      "max": [
        0.85514730215072632,
        0.98626822233200073
      ],
      "min": [
        0.4078478217124939,
        0.14994029700756073
      ],
      "type": "VEC2"
    },
    {
      "bufferView": 0,
      "componentType": 5125,
      "count": 29280,
      "max": [
        5104
      ],
      "min": [
        0
      ],
      "type": "SCALAR"
    },
    {
      "bufferView": 2,
      "byteOffset": 122520,
      "componentType": 5126,
      "count": 3607,
      "max": [
        0.050532873719930649,
        0.20127587020397186,
        0.39449167251586914
      ],
      "min": [
        -0.050532884895801544,
        -0.19946792721748352,
        -1.2031513452529907
      ],
      "type": "VEC3"
    },
    {
      "bufferView": 2,
      "byteOffset": 165804,
      "componentType": 5126,
      "count": 3607,
      "max": [
        0.99999958276748657,
        1,
        1
      ],
      "min": [
        -0.99999958276748657,
        -0.99999552965164185,
        -0.99965697526931763
      ],
      "type": "VEC3"
    },
    {
      "bufferView": 3,
      "componentType": 5126,
      "count": 3607,
      "max": [
        0.99998795986175537,
        0.99999934434890747,
        0.971973717212677,
        1
      ],
      "min": [
        -0.9999847412109375,
        -0.99978184700012207,
        -0.88253206014633179,
        -1
      ],
      "type": "VEC4"
    },
    {
      "bufferView": 1,
      "byteOffset": 81680,
      "componentType": 5126,
      "count": 3607,
      "max": [
        0.84372168779373169,
        0.62353479862213135
      ],
      "min": [
        0.42059561610221863,
        0.21545520424842834
      ],
      "type": "VEC2"
    },
    {
      "bufferView": 1,
      "byteOffset": 110536,
      "componentType": 5126,
      "count": 3607,
      "max": [
        0.84372168779373169,
        0.62353479862213135
      ],
      "min": [
        0.42059561610221863,
        0.21545520424842834
      ],
      "type": "VEC2"
    },
    {
      "bufferView": 0,
      "byteOffset": 117120,
      "componentType": 5125,
      "count": 20364,
      "max": [
        3606
      ],
      "min": [
        0
      ],
      "type": "SCALAR"
    },
    {
      "bufferView": 2,
      "byteOffset": 209088,
      "componentType": 5126,
      "count": 15933,
      "max": [
        0.025784198194742203,
        0.23678547143936157,
        1.2047990560531616
      ],
      "min": [
        -0.025784198194742203,
        -0.080807462334632874,
        -0.72331333160400391
      ],
      "type": "VEC3"
    },
    {
      "bufferView": 2,
      "byteOffset": 400284,
      "componentType": 5126,
      "count": 15933,
      "max": [
        1,
        1,
        1
      ],
      "min": [
        -1,
        -1,
        -1
      ],
      "type": "VEC3"
    },
    {
      "bufferView": 3,
      "byteOffset": 57712,
      "componentType": 5126,
      "count": 15933,
      "max": [
        1,
        0.99999916553497314,
        0.99999743700027466,
        1
      ],
      "min": [
        -0.99999988079071045,
        -1,
        -0.99997997283935547,
        -1
      ],
      "type": "VEC4"
    },
    {
      "bufferView": 1,
      "byteOffset": 139392,
      "componentType": 5126,
      "count": 15933,
      "max": [
        0.96923524141311646,
        0.99804681539535522
      ],
      "min": [
        0.001953125,
        0.001953125
      ],
      "type": "VEC2"
    },
    {
      "bufferView": 1,
      "byteOffset": 266856,
      "componentType": 5126,
      "count": 15933,
      "max": [
        0.96923524141311646,
        0.99804681539535522
      ],
      "min": [
        0.001953125,
        0.001953125
      ],
      "type": "VEC2"
    },
    {
      "bufferView": 0,
      "byteOffset": 198576,
      "componentType": 5125,
      "count": 91452,
      "max": [
        15932
      ],
      "min": [
        0
      ],
      "type": "SCALAR"
    }
  ],
  "asset": {
    "extras": {
      "author": "Andy woodhead (https://sketchfab.com/Andywoodhead)",
      "license": "CC-BY-4.0 (http://creativecommons.org/licenses/by/4.0/)",
      "source": "https://sketchfab.com/3d-models/winchester-carbine-model-1866-free-game-asset-e3d07ced9b6846b495e162f23038f6be",
      "title": "Winchester Carbine model 1866 - free game asset"
    },
    "generator": "Sketchfab-9.10.0",
    "version": "2.0"
  },
  "bufferViews": [
    {
      "buffer": 0,
      "byteLength": 564384,
      "byteOffset": 0,
      "name": "floatBufferViews",
      "target": 34963
    },
    {
      "buffer": 0,
      "byteLength": 394320,
      "byteOffset": 564384,
      "byteStride": 8,
      "name": "floatBufferViews",
      "target": 34962
    },
    {
      "buffer": 0,
      "byteLength": 591480,
      "byteOffset": 958704,
      "byteStride": 12,
      "name": "floatBufferViews",
      "target": 34962
    },
    {
      "buffer": 0,
      "byteLength": 312640,
      "byteOffset": 1550184,
      "byteStride": 16,
      "name": "floatBufferViews",
      "target": 34962
    }
  ],
  "buffers": [
    {
      "byteLength": 1862824,
      "uri": "scene.bin"
    }
  ],
  "images": [
    {
      "uri": "textures/Winchester_210_baseColor.jpeg"
    },
    {
      "uri": "textures/Winchester_211_normal.png"
    }
  ],
  "materials": [
    {
      "doubleSided": true,
      "emissiveFactor": [
        0,
        0,
        0
      ],
      "name": "Winchester_210",
      "pbrMetallicRoughness": {
        "baseColorFactor": [
          0.60364719187202454,
          0.60364719187202454,
          0.60364719187202454,
          1
        ],
        "baseColorTexture": {
          "index": 0,
          "texCoord": 0
        },
        "metallicFactor": 0,
        "roughnessFactor": 0.76724337109120866
      }
    },
    {
      "doubleSided": true,
      "emissiveFactor": [
        0,
        0,
        0
      ],
      "name": "Winchester_211",
      "normalTexture": {
        "index": 1,
        "scale": 1,
        "texCoord": 0
      },
      "pbrMetallicRoughness": {
        "baseColorFactor": [
          1,
          1,
          1,
          1
        ],
        "baseColorTexture": {
          "index": 0,
          "texCoord": 0
        },
        "metallicFactor": 1,
        "roughnessFactor": 0.5306851139120442
      }
    },
    {
      "doubleSided": true,
      "emissiveFactor": [
        0,
        0,
        0
      ],
      "name": "Winchester_212",
      "normalTexture": {
        "index": 1,
        "scale": 1,
        "texCoord": 0
      },
      "pbrMetallicRoughness": {
        "baseColorFactor": [
          1,
          1,
          1,
          1
        ],
        "baseColorTexture": {
          "index": 0,
          "texCoord": 0
        },
        "metallicFactor": 1,
        "roughnessFactor": 0.50028424809538574
      }
    }
  ],
  "meshes": [
    {
      "name": "Winchester_21_Winchester_210_0",
      "primitives": [
        {
          "attributes": {
            "NORMAL": 1,
            "POSITION": 0,
            "TEXCOORD_0": 2,
            "TEXCOORD_1": 3
          },
          "indices": 4,
          "material": 0,
          "mode": 4
        }
      ]
    },
    {
      "name": "Winchester_21_Winchester_211_0",
      "primitives": [
        {
          "attributes": {
            "NORMAL": 6,
            "POSITION": 5,
            "TANGENT": 7,
            "TEXCOORD_0": 8,
            "TEXCOORD_1": 9
          },
          "indices": 10,
          "material": 1,
          "mode": 4
        }
      ]
    },
    {
      "name": "Winchester_21_Winchester_212_0",
      "primitives": [
        {
          "attributes": {
            "NORMAL": 12,
            "POSITION": 11,
            "TANGENT": 13,
            "TEXCOORD_0": 14,
            "TEXCOORD_1": 15
          },
          "indices": 16,
          "material": 2,
          "mode": 4
        }
      ]
    }
  ],
  "nodes": [
    {
      "children": [
        1
      ],
      "name": "RootNode (gltf orientation matrix)",
      "rotation": [
        -0.70710678118654746,
        -0,
        -0,
        0.70710678118654757
      ]
    },
    {
      "children": [
        2
      ],
      "name": "RootNode (model correction matrix)"
    },
    {
      "children": [
        3
      ],
      "matrix": [
        1,
        0,
        0,
        0,
        0,
        0,
        1,
        0,
        0,
        -1,
        0,
        0,
        0,
        0,
        0,
        1
      ],
      "name": "ad24f4b2f27b4fefbf2857a65a781337.fbx"
    },
    {
      "children": [
        4
      ],
      "name": "RootNode"
    },
    {
      "children": [
        5,
        6,
        7
      ],
      "name": "Winchester_21"
    },
    {
      "mesh": 0,
      "name": "Winchester_21_Winchester_210_0"
    },
    {
      "mesh": 1,
      "name": "Winchester_21_Winchester_211_0"
    },
    {
      "mesh": 2,
      "name": "Winchester_21_Winchester_212_0"
    }
  ],
  "samplers": [
    {
      "magFilter": 9729,
      "minFilter": 9987,
      "wrapS": 10497,
      "wrapT": 10497
    }
  ],
  "scene": 0,
  "scenes": [
    {
      "name": "OSG_Scene",
      "nodes": [
        0
      ]
    }
  ],
  "textures": [
    {
      "sampler": 0,
      "source": 0
    },
    {
      "sampler": 0,
      "source": 1
    }
  ]
}

